<?xml version="1.0" encoding="UTF-8" standalone="no"?>
<svg
   xmlns:dc="http://purl.org/dc/elements/1.1/"
   xmlns:cc="http://creativecommons.org/ns#"
   xmlns:rdf="http://www.w3.org/1999/02/22-rdf-syntax-ns#"
   xmlns:svg="http://www.w3.org/2000/svg"
   xmlns="http://www.w3.org/2000/svg"
   xmlns:sodipodi="http://sodipodi.sourceforge.net/DTD/sodipodi-0.dtd"
   xmlns:inkscape="http://www.inkscape.org/namespaces/inkscape"
   inkscape:export-ydpi="96"
   inkscape:export-xdpi="96"
   inkscape:export-filename="/home/user/aqua/design/logos/logo-name.svg.png"
   sodipodi:docname="logo-name.svg"
   inkscape:version="1.0 (4035a4f, 2020-05-01)"
   id="svg5909"
   version="1.1"
   viewBox="0 0 198.43749 52.916668"
   height="200"
   width="750">
  <defs
     id="defs5903" />
  <sodipodi:namedview
     inkscape:window-maximized="1"
     inkscape:window-y="0"
     inkscape:window-x="0"
     inkscape:window-height="719"
     inkscape:window-width="1362"
     units="px"
     showgrid="false"
     inkscape:document-rotation="0"
     inkscape:current-layer="layer1"
     inkscape:document-units="mm"
     inkscape:cy="253.90625"
     inkscape:cx="310.42411"
     inkscape:zoom="0.7"
     inkscape:pageshadow="2"
     inkscape:pageopacity="0.0"
     borderopacity="1.0"
     bordercolor="#666666"
     pagecolor="#ffffff"
     id="base" />
  <metadata
     id="metadata5906">
    <rdf:RDF>
      <cc:Work
         rdf:about="">
        <dc:format>image/svg+xml</dc:format>
        <dc:type
           rdf:resource="http://purl.org/dc/dcmitype/StillImage" />
        <dc:title></dc:title>
      </cc:Work>
    </rdf:RDF>
  </metadata>
  <g
     id="layer1"
     inkscape:groupmode="layer"
     inkscape:label="Layer 1">
    <g
       transform="matrix(0.63559723,0,0,0.63559723,-71.667675,-203.86461)"
       style="font-style:normal;font-variant:normal;font-weight:bold;font-stretch:normal;font-size:100px;line-height:1.25;font-family:Montserrat;-inkscape-font-specification:'Montserrat Bold';letter-spacing:0px;word-spacing:0px;display:inline;stroke-width:0.999999"
       id="text82-0-1-6-7-4"
       aria-label="AQUA">
      <path
         d="m 223.52734,320.97461 c -21.7,0 -37.89843,15.1 -37.89843,35.5 0,17.92617 12.3406,31.86099 29.89843,35.15625 V 404 h 16 v -12.39258 c 17.5819,-3.23917 29.90039,-17.20573 29.90039,-35.13281 0,-20.3 -16.20039,-35.5 -37.90039,-35.5 z m 0.20118,15.59961 c 10.5,0 18.90039,8.6 18.90039,20 0,8.4446 -4.52765,15.34244 -11.10157,18.47266 v -13.8125 h -16 v 13.62304 c -6.47535,-3.15837 -11.09961,-10.0651 -11.09961,-18.2832 0,-11.4 8.80079,-20 19.30079,-20 z"
         style="font-variation-settings:normal;opacity:1;vector-effect:none;fill:#111111;fill-opacity:1;fill-rule:evenodd;stroke-width:2.70427;stroke-linecap:square;stroke-linejoin:miter;stroke-miterlimit:4;stroke-dasharray:none;stroke-dashoffset:0;stroke-opacity:1;paint-order:stroke markers fill;stop-color:#000000;stop-opacity:1"
         id="rect1296" />
      <path
         id="path1270"
         style="font-style:normal;font-variant:normal;font-weight:bold;font-stretch:normal;font-size:100px;font-family:'Montserrat Alternates';-inkscape-font-specification:'Montserrat Alternates Bold';fill:#111111;fill-opacity:1;stroke-width:0.999999"
         d="m 145.05643,320.77367 c -19.8,0 -32.3,11.9 -32.3,30.3 v 40.5 h 18.3 v -16.5 h 28.4 v 16.5 h 18.3 v -40.5 c 0,-18.4 -12.6,-30.3 -32.7,-30.3 z m 0.2,15.6 c 8.7,0 14.2,5.7 14.2,14.7 v 10 h -28.4 v -10 c 0,-9 5.4,-14.7 14.2,-14.7 z" />
      <path
         id="path1276"
         style="font-style:normal;font-variant:normal;font-weight:bold;font-stretch:normal;font-size:100px;font-family:'Montserrat Alternates';-inkscape-font-specification:'Montserrat Alternates Bold';fill:#111111;fill-opacity:1;stroke-width:0.999999"
         d="m 378.25956,320.77367 c -19.8,0 -32.3,11.9 -32.3,30.3 v 40.5 h 18.3 v -16.5 h 28.4 v 16.5 h 18.3 v -40.5 c 0,-18.4 -12.6,-30.3 -32.7,-30.3 z m 0.2,15.6 c 8.7,0 14.2,5.7 14.2,14.7 v 10 h -28.4 v -10 c 0,-9 5.4,-14.7 14.2,-14.7 z" />
      <path
         sodipodi:nodetypes="ssccccccsssccs"
         d="m 303.20987,391.54497 c -19.8,0 -32.3,-9.9 -32.3,-28.3 v -42.5 h 18.3 v 42.5 h 28.4 v -42.5 h 18.3 v 42.5 c 0,18.4 -12.6,28.3 -32.7,28.3 z m 0.2,-15.6 c 8.7,0 14.11038,-5.52453 14.2,-12.7 h -28.4 c 0.0387,7.12736 5.4,12.7 14.2,12.7 z"
         style="font-style:normal;font-variant:normal;font-weight:bold;font-stretch:normal;font-size:100px;line-height:1.25;font-family:'Montserrat Alternates';-inkscape-font-specification:'Montserrat Alternates Bold';letter-spacing:0px;word-spacing:0px;display:inline;fill:#111111;fill-opacity:1;stroke-width:0.999999"
         id="path1276-5" />
    </g>
  </g>
</svg>
