<?xml version="1.0" encoding="UTF-8" standalone="no"?>
<svg
   xmlns:dc="http://purl.org/dc/elements/1.1/"
   xmlns:cc="http://creativecommons.org/ns#"
   xmlns:rdf="http://www.w3.org/1999/02/22-rdf-syntax-ns#"
   xmlns:svg="http://www.w3.org/2000/svg"
   xmlns="http://www.w3.org/2000/svg"
   xmlns:sodipodi="http://sodipodi.sourceforge.net/DTD/sodipodi-0.dtd"
   xmlns:inkscape="http://www.inkscape.org/namespaces/inkscape"
   sodipodi:docname="logo.svg"
   inkscape:version="1.0 (4035a4f, 2020-05-01)"
   id="svg8"
   version="1.1"
   viewBox="0 0 270.93333 270.93334"
   height="1024"
   width="1024"
   inkscape:export-filename="/home/user/synced/homebase/aqua/design/logos/aqua-1024x1024.png"
   inkscape:export-xdpi="96"
   inkscape:export-ydpi="96">
  <defs
     id="defs2" />
  <sodipodi:namedview
     inkscape:window-maximized="1"
     inkscape:window-y="0"
     inkscape:window-x="0"
     inkscape:window-height="719"
     inkscape:window-width="1362"
     units="px"
     showgrid="false"
     inkscape:document-rotation="0"
     inkscape:current-layer="layer2"
     inkscape:document-units="mm"
     inkscape:cy="730.47104"
     inkscape:cx="652.60218"
     inkscape:zoom="0.35"
     inkscape:pageshadow="2"
     inkscape:pageopacity="0.0"
     borderopacity="1.0"
     bordercolor="#666666"
     pagecolor="#ffffff"
     id="base" />
  <metadata
     id="metadata5">
    <rdf:RDF>
      <cc:Work
         rdf:about="">
        <dc:format>image/svg+xml</dc:format>
        <dc:type
           rdf:resource="http://purl.org/dc/dcmitype/StillImage" />
        <dc:title></dc:title>
      </cc:Work>
    </rdf:RDF>
  </metadata>
  <g
     inkscape:groupmode="layer"
     id="layer2"
     inkscape:label="white-background"
     style="display:inline">
    <circle
       style="display:inline;fill:#ffffff;fill-opacity:1;stroke:none;stroke-width:0.221806;stroke-linecap:round;stroke-linejoin:round;stroke-miterlimit:4;stroke-dasharray:none;stroke-opacity:1;paint-order:stroke markers fill"
       id="path1657"
       cx="135.61314"
       cy="137.24515"
       r="130.49956"
       inkscape:export-xdpi="96"
       inkscape:export-ydpi="96" />
  </g>
  <g
     id="layer1"
     inkscape:groupmode="layer"
     inkscape:label="Layer 1"
     style="display:inline">
    <g
       transform="matrix(0.26458333,0,0,0.26458333,86.390232,38.671175)"
       id="g231">
      <g
         transform="matrix(23.961309,0,0,23.961309,-680.73085,-361.21096)"
         id="g2829">
        <path
           transform="matrix(0.04173395,0,0,0.04173395,14.782856,8.9749766)"
           d="M 496.26172 193.47656 L 364.28516 340.35938 L 343.08789 459.1875 L 281.35352 486.42773 L 255.09961 572.25391 L 160.46289 572.25391 L 173.23047 592.97852 L 256.36719 592.97852 L 270.32031 638.57227 L 337.4043 638.57227 L 337.4043 659.29688 L 276.66211 659.29688 L 281.35352 674.6582 L 361.41016 701.90039 L 363.91211 715.94336 L 234.14453 715.94336 L 251.92383 736.66797 L 367.61133 736.66797 L 363.91406 715.94336 L 424.6543 715.94336 L 424.6543 736.66797 L 367.61133 736.66797 L 382.60742 834.73828 L 497.48438 860.38477 L 626.79102 848.57031 L 624.29492 788.74414 L 723.33008 788.74414 L 741.10938 768.01953 L 630.69922 768.01953 L 650.08984 734.19727 L 774.66992 692.67383 L 774.66992 666.20312 L 666.00586 666.20312 L 666.00586 645.47852 L 774.66992 645.47852 L 774.66992 592.97852 L 846 592.97852 L 854.50195 570.99023 L 774.66992 572.25391 L 774.66992 468.41406 L 668.41211 426.88086 L 636.75195 371.67773 L 654.55078 295.75977 L 496.26172 193.47656 z M 774.66992 645.47852 L 774.66992 666.20312 L 820.88281 666.20312 L 835.9043 645.47852 L 774.66992 645.47852 z M 276.66211 659.29688 L 270.32031 638.57227 L 193.50391 638.57227 L 211.2832 659.29688 L 276.66211 659.29688 z M 500.37305 220.11328 L 630.92578 305.75781 L 614.70898 374.9043 L 654.36914 444.04883 L 753.94531 483.35156 L 753.94531 572.25391 L 753.94531 572.26172 L 276.77734 572.26172 L 298.06641 502.64258 L 361.3418 474.88086 L 383.66602 349.73438 L 500.37305 220.11328 z M 412.19141 611.95117 L 520.85547 611.95117 L 520.85547 632.67578 L 412.19141 632.67578 L 412.19141 611.95117 z M 494.62305 689.28125 L 603.28906 689.28125 L 603.28906 710.00586 L 494.62305 710.00586 L 494.62305 689.28125 z M 561.55273 768.01953 L 628.63672 768.01953 L 622.29492 788.74414 L 561.55273 788.74414 L 561.55273 768.01953 z M 429.01367 770.51367 L 506.61328 770.51367 L 506.61328 791.24023 L 429.01367 791.24023 L 429.01367 770.51367 z "
           style="fill:#000000;fill-opacity:1;stroke:none;stroke-width:8.8902px;stroke-linecap:butt;stroke-linejoin:miter;stroke-opacity:1"
           id="path6155" />
        <rect
           style="stroke-width:0.337246"
           x="-89.718582"
           y="-8.350338"
           transform="matrix(-0.72539539,0.72539539,0.72539539,0.72539539,-23.441185,92.895439)"
           width="0.84311426"
           height="4.4840188"
           id="rect4785" />
        <rect
           style="stroke-width:0.337246"
           x="2.6638947"
           y="-88.386444"
           transform="matrix(-0.72539539,-0.72539539,-0.72539539,0.72539539,-23.441185,92.895439)"
           width="4.4840188"
           height="0.84311426"
           id="rect4787" />
        <rect
           style="stroke-width:0.337246"
           x="-84.489433"
           y="-7.2866488"
           transform="matrix(-0.72539539,0.72539539,0.72539539,0.72539539,-23.441185,92.895439)"
           width="0.84311426"
           height="4.4840188"
           id="rect4789" />
        <rect
           style="stroke-width:0.337246"
           x="82.31385"
           y="1.6000824"
           transform="matrix(0.72539539,-0.72539539,-0.72539539,-0.72539539,-23.441185,92.895439)"
           width="0.84311426"
           height="4.4840188"
           id="rect4791" />
        <path
           d="m 36.119782,51.390396 c -11.641087,0 -21.078061,-9.43698 -21.078061,-21.078064 0,-11.641084 9.436974,-21.0780588 21.078061,-21.0780588 11.641084,0 21.078058,9.4369748 21.078058,21.0780588 -0.01275,11.636054 -9.442009,21.065894 -21.078058,21.078064 z m 0,-41.235679 c -11.132745,0 -20.157617,9.024869 -20.157617,20.157615 0,11.132744 9.024872,20.157624 20.157617,20.157624 11.132746,0 20.157615,-9.02488 20.157615,-20.157624 C 56.264647,19.184635 47.247479,10.166888 36.119782,10.154717 Z"
           id="path1156-3-1"
           style="fill:#000000;fill-rule:nonzero;stroke:none;stroke-width:0.184088" />
        <path
           d="m 36.118865,48.941146 c -1.089132,-3.4e-4 -2.176197,-0.0946 -3.249151,-0.28164 l 0.158257,-0.90573 c 2.050733,0.35623 4.147517,0.35623 6.198237,0 l 0.158325,0.90756 c -1.078462,0.18736 -2.171111,0.28098 -3.265723,0.27981 z m -9.373753,-2.50548 c -1.892499,-1.0956 -3.579475,-2.51284 -4.985099,-4.18799 l 0.704997,-0.59282 c 1.336042,1.5938 2.940241,2.94195 4.740263,3.98367 z m 18.300169,-0.79889 c 1.802265,-1.04154 3.408403,-2.39038 4.745783,-3.98551 l 0.705059,0.59092 c -1.407016,1.67421 -3.095226,3.09019 -4.988781,4.18432 z m -26.558356,-9.01847 c -0.749947,-2.055744 -1.133143,-4.227199 -1.132138,-6.415465 h 0.918599 c -6.75e-4,2.080917 0.363692,4.145811 1.076916,6.100675 z m 34.40602,-0.32959 c 0.712347,-1.959402 1.074981,-4.028694 1.071386,-6.113564 v -0.04053 h 0.920447 v 0.04053 c 0.0027,2.189133 -0.378596,4.361775 -1.126621,6.419144 z M 18.474101,23.774428 c 0.746746,-2.057108 1.848306,-3.967387 3.254681,-5.644125 l 0.706908,0.590908 c -1.338615,1.594115 -2.386677,3.411081 -3.09636,5.367998 z m 34.405954,0.261455 c -0.715429,-1.953453 -1.768462,-3.766045 -3.11108,-5.355128 l 0.708728,-0.594594 c 1.411653,1.671807 2.518858,3.578431 3.27124,5.633086 z M 26.713819,13.93497 c 1.891568,-1.101505 3.963241,-1.859381 6.119081,-2.2385 l 0.160123,0.907547 c -2.049242,0.36025 -4.018627,1.080081 -5.817172,2.126217 z m 18.302003,0.76763 c -1.803145,-1.039968 -3.775411,-1.754099 -5.826373,-2.109647 l 0.158311,-0.905709 c 2.156336,0.369722 4.23037,1.117568 6.126451,2.209044 z"
           id="path1158-8-6"
           style="fill:#000000;fill-rule:nonzero;stroke:none;stroke-width:0.184088"
           sodipodi:nodetypes="ccccccccccccccccccccccccccccccccccccccccccccccccc" />
        <path
           d="m 36.119782,46.631726 c -9.012953,0 -16.319391,-7.30644 -16.319391,-16.319394 0,-9.012951 7.306438,-16.319389 16.319391,-16.319389 9.012951,0 16.319388,7.306438 16.319388,16.319389 -0.01018,9.008744 -7.310643,16.309244 -16.319388,16.319394 z m 0,-31.718339 c -8.504601,0 -15.398944,6.894347 -15.398944,15.398945 0,8.504604 6.894343,15.398954 15.398944,15.398954 8.504598,0 15.398945,-6.89435 15.398945,-15.398954 -0.0089,-8.500815 -6.89813,-15.389819 -15.398945,-15.398945 z"
           id="path1160-5-5"
           style="fill:#000000;fill-rule:nonzero;stroke:none;stroke-width:0.184088" />
      </g>
    </g>
  </g>
</svg>
